<?xml version="1.0" encoding="utf-8"?>
<!-- Generator: Adobe Illustrator 22.0.1, SVG Export Plug-In . SVG Version: 6.00 Build 0)  -->
<!DOCTYPE svg PUBLIC "-//W3C//DTD SVG 1.1//EN" "http://www.w3.org/Graphics/SVG/1.1/DTD/svg11.dtd">
<svg version="1.1" id="Layer_1" xmlns="http://www.w3.org/2000/svg" xmlns:xlink="http://www.w3.org/1999/xlink" x="0px" y="0px"
	 viewBox="0 0 48 48" style="enable-background:new 0 0 48 48;" xml:space="preserve">
<style type="text/css">
	.st0{fill:#101820;}
</style>
<path class="st0" d="M23.9,36.4c-6.7,0-12.2-5.5-12.2-12.2S17.2,12,23.9,12s12.2,5.5,12.2,12.2S30.6,36.4,23.9,36.4z M24.3,0.3
	c13,0.2,23.5,10.9,23.4,24C47.5,37.2,37,47.7,24,47.7c-0.1,0-0.2,0-0.3,0C10.9,47.6,0.3,37,0.3,24c0-0.1,0-0.2,0-0.4
	C0.5,10.8,11.2,0.1,24.3,0.3z M41.9,33.9c1.8-3.2,2.7-6.7,2.6-10.4c-0.3-10.8-8.9-19.6-19.7-20c-10.7-0.4-20,7.6-21.1,18.4
	c-0.5,5,0.6,9.6,3.5,13.7c4.1,5.7,9.7,8.6,16.7,8.9c0,0,0,0,0.1,0c0,0,0,0,0.1,0c3.8,0,7.2-1,10.4-2.9
	C37.6,39.7,40.1,37.1,41.9,33.9z"/>
</svg>
