<?xml version="1.0" encoding="utf-8"?>
<!-- Generator: Adobe Illustrator 19.2.1, SVG Export Plug-In . SVG Version: 6.00 Build 0)  -->
<!DOCTYPE svg PUBLIC "-//W3C//DTD SVG 1.1//EN" "http://www.w3.org/Graphics/SVG/1.1/DTD/svg11.dtd">
<svg version="1.1" id="Layer_1" xmlns="http://www.w3.org/2000/svg" xmlns:xlink="http://www.w3.org/1999/xlink" x="0px" y="0px"
	 viewBox="0 0 48 48" style="enable-background:new 0 0 48 48;" xml:space="preserve">
<style type="text/css">
	.st0{fill:#010202;}
</style>
<path d="M24.3,0.3c13,0.2,23.5,10.9,23.4,24C47.5,37.2,37,47.7,24,47.7c-0.1,0-0.2,0-0.3,0C10.9,47.6,0.3,37,0.3,24
	c0-0.1,0-0.2,0-0.4C0.5,10.8,11.2,0.1,24.3,0.3z M41.9,33.9c1.8-3.2,2.7-6.7,2.6-10.4C44.2,12.7,35.6,3.9,24.8,3.5
	c-10.7-0.4-20,7.6-21.1,18.4c-0.5,5,0.6,9.6,3.5,13.7c4.1,5.7,9.7,8.6,16.7,8.9c0,0,0,0,0.1,0c0,0,0,0,0.1,0c3.8,0,7.2-1,10.4-2.9
	C37.6,39.7,40.1,37.1,41.9,33.9z M34.5,15.3c-0.7-0.2-1.5,0-1.9,0.5L20,28.4l-4.7-4.7c-0.5-0.6-1.3-0.8-2-0.5
	c-0.7,0.2-1.1,0.9-1.1,1.6c0,0.5,0.4,1,0.5,1.2l6,6c0.3,0.3,0.8,0.5,1.3,0.5c0.5,0,0.9-0.2,1.3-0.5c0.6-0.6,12.6-12.6,13.8-13.8
	c0.2-0.2,0.6-0.7,0.6-1.3C35.6,16.2,35.2,15.6,34.5,15.3z"/>
</svg>
