<?xml version="1.0" encoding="utf-8"?>
<!-- Generator: Adobe Illustrator 22.0.1, SVG Export Plug-In . SVG Version: 6.00 Build 0)  -->
<!DOCTYPE svg PUBLIC "-//W3C//DTD SVG 1.1//EN" "http://www.w3.org/Graphics/SVG/1.1/DTD/svg11.dtd">
<svg version="1.1" id="Layer_1" xmlns="http://www.w3.org/2000/svg" xmlns:xlink="http://www.w3.org/1999/xlink" x="0px" y="0px"
	 viewBox="0 0 48 48" style="enable-background:new 0 0 48 48;" xml:space="preserve">
<style type="text/css">
	.st0{fill:#8c8d8e;}
</style>
<path id="XMLID_15_" class="st0" d="M37.5,37.9c-3.6,3.6-8.4,5.6-13.5,5.6c-5.2,0-10.1-2-13.7-5.7c-3.6-3.7-5.6-8.5-5.6-13.7c0-5.1,2.1-10,5.7-13.6c3.6-3.6,8.4-5.6,13.5-5.6c5.2,0,10.1,2,13.7,5.7C45.2,18.2,45.1,30.4,37.5,37.9zM39.9,8.5C35.6,4.3,30,1.9,24,1.9c-5.9,0-11.5,2.3-15.6,6.4C4.1,12.5,1.8,18.1,1.7,24C1.7,30,4,35.6,8.2,39.8c4.2,4.3,9.8,6.6,15.9,6.6c5.9,0,11.5-2.3,15.6-6.4C48.4,31.4,48.5,17.3,39.9,8.5z"/>
</svg>
