<?xml version="1.0" encoding="utf-8"?>
<!-- Generator: Adobe Illustrator 22.0.1, SVG Export Plug-In . SVG Version: 6.00 Build 0)  -->
<!DOCTYPE svg PUBLIC "-//W3C//DTD SVG 1.1//EN" "http://www.w3.org/Graphics/SVG/1.1/DTD/svg11.dtd">
<svg version="1.1" id="Layer_1" xmlns="http://www.w3.org/2000/svg" xmlns:xlink="http://www.w3.org/1999/xlink" x="0px" y="0px"
	 viewBox="0 0 48 48" style="enable-background:new 0 0 48 48;" xml:space="preserve">
<style type="text/css">
	.st0{fill:#8c8d8e;}
</style>
<path id="XMLID_15_" class="st0" d="M7.5,7C16.8-2,31.8-1.9,41,7.5c9,9.3,9,24.1-0.2,33.3c-0.1,0.1-0.1,0.1-0.2,0.2 c-9.1,9-24.1,9-33.3-0.2c-0.1-0.1-0.1-0.1-0.3-0.3C-1.9,31.3-1.9,16.2,7.5,7z M43.7,18.3c-1-3.5-2.8-6.6-5.5-9.2 C30.3,1.7,18,1.6,10.1,8.9c-7.8,7.3-8.8,19.5-1.9,27.9c3.2,3.9,7.2,6.4,12.2,7.2c6.9,1.1,12.9-0.8,18.1-5.5c0,0,0,0,0.1-0.1 c0,0,0,0,0.1-0.1c2.7-2.7,4.4-5.8,5.3-9.4C44.7,25.5,44.6,21.9,43.7,18.3z M34.1,14c0.5,0.6,0.4,1.5-0.1,2.1 c-0.2,0.2-0.5,0.5-0.7,0.7c-2.3,2.3-4.6,4.6-6.9,6.9c-0.1,0-0.1,0.1-0.2,0.1c0.1,0.1,0.2,0.2,0.2,0.2c2.5,2.5,5,5,7.5,7.5 c0.6,0.6,0.7,1.6,0.1,2.2c-0.6,0.7-1.6,0.7-2.3,0.1c-0.1-0.1-0.1-0.1-0.2-0.2c-2.5-2.5-4.9-4.9-7.4-7.4c-0.1-0.1-0.1-0.1-0.2-0.2 c-0.1,0.1-0.1,0.1-0.2,0.2c-2.5,2.5-5,5-7.5,7.5c-0.7,0.7-1.8,0.7-2.4-0.1c-0.5-0.6-0.4-1.5,0.1-2.1c0.4-0.4,0.9-0.9,1.3-1.3 c2.1-2.1,4.2-4.2,6.3-6.3c0-0.1,0.1-0.1,0.2-0.1c-0.1-0.1-0.1-0.2-0.2-0.2c-2.5-2.5-5-5-7.5-7.5c-0.6-0.6-0.7-1.6-0.1-2.2 c0.6-0.7,1.6-0.7,2.3-0.1c0.1,0.1,0.1,0.1,0.2,0.2c2.5,2.5,4.9,4.9,7.4,7.4c0.1,0.1,0.1,0.1,0.2,0.4c0.1-0.1,0.1-0.2,0.2-0.2 c2.5-2.5,5-5,7.5-7.5C32.3,13.3,33.5,13.4,34.1,14z"/>
</svg>
